<svg width="16" height="16" viewBox="0 0 16 16" fill="none" xmlns="http://www.w3.org/2000/svg">
<path d="M1.40625 0C0.630844 0 0 0.630844 0 1.40625V7.125H7.125V0H1.40625ZM4.65625 4.03125H4.03125V4.65625C4.03125 4.91512 3.82137 5.125 3.5625 5.125C3.30363 5.125 3.09375 4.91512 3.09375 4.65625V4.03125H2.46875C2.20988 4.03125 2 3.82137 2 3.5625C2 3.30363 2.20988 3.09375 2.46875 3.09375H3.09375V2.46875C3.09375 2.20988 3.30363 2 3.5625 2C3.82137 2 4.03125 2.20988 4.03125 2.46875V3.09375H4.65625C4.91512 3.09375 5.125 3.30363 5.125 3.5625C5.125 3.82137 4.91512 4.03125 4.65625 4.03125Z" fill="#CC6666"/>
<path d="M14.9323 7.125H15.1875V1.40625C15.1875 0.630844 14.5567 0 13.7812 0H8.0625V6.95594C8.99019 6.25797 10.1429 5.84375 11.3906 5.84375C12.736 5.84375 13.9709 6.32534 14.9323 7.125ZM10.0625 3.5625C10.0625 3.30363 10.2724 3.09375 10.5312 3.09375H12.7188C12.9776 3.09375 13.1875 3.30363 13.1875 3.5625C13.1875 3.82137 12.9776 4.03125 12.7188 4.03125H10.5312C10.2724 4.03125 10.0625 3.82137 10.0625 3.5625Z" fill="#CC6666"/>
<path d="M6.95594 8.0625H0V13.7812C0 14.5567 0.630844 15.1875 1.40625 15.1875H7.125V14.9323C6.32534 13.9709 5.84375 12.736 5.84375 11.3906C5.84375 10.1429 6.25797 8.99019 6.95594 8.0625ZM4.67519 12.0748C4.85825 12.2579 4.85825 12.5547 4.67519 12.7377C4.58369 12.8292 4.46372 12.875 4.34375 12.875C4.22378 12.875 4.10381 12.8292 4.01231 12.7377L3.5625 12.2879L3.11269 12.7377C3.02119 12.8292 2.90122 12.875 2.78125 12.875C2.66128 12.875 2.54131 12.8292 2.44981 12.7377C2.26675 12.5546 2.26675 12.2578 2.44981 12.0748L2.89959 11.625L2.44978 11.1752C2.26672 10.9921 2.26672 10.6953 2.44978 10.5123C2.63281 10.3292 2.92963 10.3292 3.11269 10.5123L3.5625 10.9621L4.01231 10.5123C4.19534 10.3292 4.49216 10.3292 4.67522 10.5123C4.85828 10.6953 4.85828 10.9921 4.67522 11.1752L4.22541 11.625L4.67519 12.0748Z" fill="#CC6666"/>
<path d="M11.3906 6.78125C8.849 6.78125 6.78125 8.849 6.78125 11.3906C6.78125 13.9323 8.849 16 11.3906 16C13.9323 16 16 13.9323 16 11.3906C16 8.849 13.9323 6.78125 11.3906 6.78125ZM12.4844 12.6406H10.2969C10.038 12.6406 9.82812 12.4307 9.82812 12.1719C9.82812 11.913 10.038 11.7031 10.2969 11.7031H12.4844C12.7432 11.7031 12.9531 11.913 12.9531 12.1719C12.9531 12.4307 12.7432 12.6406 12.4844 12.6406ZM12.4844 11.0781H10.2969C10.038 11.0781 9.82812 10.8682 9.82812 10.6094C9.82812 10.3505 10.038 10.1406 10.2969 10.1406H12.4844C12.7432 10.1406 12.9531 10.3505 12.9531 10.6094C12.9531 10.8682 12.7432 11.0781 12.4844 11.0781Z" fill="#CC6666"/>
</svg>
