<?xml version="1.0" encoding="UTF-8" standalone="no"?>
<svg
   xmlns:dc="http://purl.org/dc/elements/1.1/"
   xmlns:cc="http://creativecommons.org/ns#"
   xmlns:rdf="http://www.w3.org/1999/02/22-rdf-syntax-ns#"
   xmlns:svg="http://www.w3.org/2000/svg"
   xmlns="http://www.w3.org/2000/svg"
   height="60"
   width="51"
   xml:space="preserve"
   viewBox="0 0 436.63802 512.00124"
   y="0px"
   x="0px"
   id="Layer_1"
   version="1.1"><metadata
     id="metadata55"><rdf:RDF><cc:Work
         rdf:about=""><dc:format>image/svg+xml</dc:format><dc:type
           rdf:resource="http://purl.org/dc/dcmitype/StillImage" /><dc:title></dc:title></cc:Work></rdf:RDF></metadata><defs
     id="defs53" /><g
     transform="translate(-37.681,2.5e-4)"
     id="g18"><g
       id="g16"><g
         id="g14"><path
           id="path2"
           d="M 466.395,88.411 C 395.95,69.109 325.091,39.054 261.478,1.496 c -3.379,-1.995 -7.572,-1.995 -10.95,0 C 185.08,40.133 118.05,68.562 45.605,88.411 c -4.68,1.281 -7.924,5.535 -7.924,10.388 v 110.046 c 0,113.323 52.279,188.335 96.137,231.306 47.216,46.265 102.216,71.85 122.185,71.85 19.967,0 74.967,-25.585 122.183,-71.85 43.857,-42.97 96.133,-117.982 96.133,-231.306 V 98.798 c 0,-4.852 -3.244,-9.106 -7.924,-10.387 z m -13.616,120.433 c 0,105.843 -48.761,175.838 -89.669,215.92 -46.431,45.495 -96.074,65.695 -107.107,65.695 -11.033,0 -60.679,-20.2 -107.111,-65.695 -40.907,-40.083 -89.67,-110.077 -89.67,-215.92 V 106.974 C 128.5,87.304 193.018,59.853 256.005,23.25 c 61.414,35.632 129.151,64.448 196.774,83.72 z" /><path
           id="path4"
           d="m 160.538,105.769 c -2.18,-5.535 -8.433,-8.254 -13.969,-6.073 -19.24,7.581 -38.988,14.559 -58.695,20.741 -4.491,1.41 -7.547,5.57 -7.547,10.276 v 41.591 c 0,5.948 4.823,10.77 10.77,10.77 5.947,0 10.77,-4.822 10.77,-10.77 v -33.72 c 17.679,-5.72 35.339,-12.047 52.598,-18.848 5.535,-2.179 8.254,-8.432 6.073,-13.967 z" /><path
           id="path6"
           d="m 180.997,107.812 c 1.445,0 2.912,-0.291 4.319,-0.905 l 0.198,-0.086 c 5.449,-2.388 7.903,-8.731 5.515,-14.178 -2.39,-5.449 -8.769,-7.914 -14.212,-5.528 l -0.174,0.075 c -5.452,2.381 -7.914,8.719 -5.533,14.169 1.767,4.046 5.732,6.453 9.887,6.453 z" /><path
           id="path8"
           d="m 384.322,347.283 c -4.977,-3.253 -11.651,-1.854 -14.908,3.125 -8.875,13.584 -19.287,26.592 -30.951,38.659 -9.592,9.922 -19.986,19.17 -30.893,27.485 -4.729,3.606 -5.639,10.364 -2.034,15.095 2.121,2.779 5.328,4.241 8.572,4.241 2.278,0 4.573,-0.719 6.523,-2.207 11.765,-8.971 22.975,-18.944 33.317,-29.642 12.611,-13.044 23.881,-27.124 33.499,-41.849 3.255,-4.98 1.854,-11.654 -3.125,-14.907 z" /><path
           id="path10"
           d="m 282.558,433.443 -0.618,0.364 c -5.147,2.981 -6.906,9.569 -3.926,14.716 1.997,3.45 5.612,5.376 9.331,5.376 1.83,0 3.688,-0.467 5.385,-1.452 l 0.713,-0.419 c 5.133,-3.006 6.857,-9.603 3.851,-14.736 -3.008,-5.131 -9.606,-6.852 -14.736,-3.849 z" /><path
           id="path12"
           d="m 182.589,234.019 c -6.613,-6.614 -15.408,-10.254 -24.762,-10.254 -9.354,0 -18.15,3.641 -24.766,10.254 -13.653,13.656 -13.653,35.876 0,49.531 l 63.596,63.594 c 6.614,6.612 15.409,10.253 24.764,10.253 9.355,0 18.15,-3.641 24.765,-10.255 L 378.947,214.38 c 13.652,-13.659 13.652,-35.876 -0.002,-49.527 -6.614,-6.614 -15.409,-10.254 -24.765,-10.254 -9.355,0 -18.15,3.641 -24.765,10.254 L 221.42,272.848 Z m 162.058,-53.934 c 2.545,-2.545 5.932,-3.946 9.534,-3.946 3.604,0 6.988,1.401 9.535,3.946 5.255,5.255 5.255,13.809 -0.002,19.066 l -132.759,132.76 c -2.545,2.545 -5.932,3.946 -9.534,3.946 -3.602,0 -6.989,-1.401 -9.535,-3.946 l -63.594,-63.592 c -5.257,-5.257 -5.257,-13.811 -0.002,-19.066 2.546,-2.545 5.933,-3.948 9.536,-3.948 3.603,0 6.988,1.401 9.533,3.946 l 46.445,46.446 c 2.021,2.019 4.759,3.154 7.616,3.154 2.857,0 5.595,-1.134 7.614,-3.154 z" /></g></g></g><g
     transform="translate(-37.681,2.5e-4)"
     id="g20" /><g
     transform="translate(-37.681,2.5e-4)"
     id="g22" /><g
     transform="translate(-37.681,2.5e-4)"
     id="g24" /><g
     transform="translate(-37.681,2.5e-4)"
     id="g26" /><g
     transform="translate(-37.681,2.5e-4)"
     id="g28" /><g
     transform="translate(-37.681,2.5e-4)"
     id="g30" /><g
     transform="translate(-37.681,2.5e-4)"
     id="g32" /><g
     transform="translate(-37.681,2.5e-4)"
     id="g34" /><g
     transform="translate(-37.681,2.5e-4)"
     id="g36" /><g
     transform="translate(-37.681,2.5e-4)"
     id="g38" /><g
     transform="translate(-37.681,2.5e-4)"
     id="g40" /><g
     transform="translate(-37.681,2.5e-4)"
     id="g42" /><g
     transform="translate(-37.681,2.5e-4)"
     id="g44" /><g
     transform="translate(-37.681,2.5e-4)"
     id="g46" /><g
     transform="translate(-37.681,2.5e-4)"
     id="g48" /></svg>