<?xml version="1.0" encoding="UTF-8" standalone="no"?>
<svg
   xmlns:dc="http://purl.org/dc/elements/1.1/"
   xmlns:cc="http://creativecommons.org/ns#"
   xmlns:rdf="http://www.w3.org/1999/02/22-rdf-syntax-ns#"
   xmlns:svg="http://www.w3.org/2000/svg"
   xmlns="http://www.w3.org/2000/svg"
   xml:space="preserve"
   style="enable-background:new 0 0 512 512;"
   viewBox="0 0 512 512"
   y="0px"
   x="0px"
   width="61"
   height="61"
   version="1.1"><metadata
     id="metadata67"><rdf:RDF><cc:Work
         rdf:about=""><dc:format>image/svg+xml</dc:format><dc:type
           rdf:resource="http://purl.org/dc/dcmitype/StillImage" /><dc:title></dc:title></cc:Work></rdf:RDF></metadata><defs
     id="defs65" /><g
     id="g30"><g
       id="g28"><g
         id="g26"><path
           id="path2"
           d="M480,32h-53.333V0h-21.333v32H266.667V0h-21.333v32H106.667V0H85.333v32H32C14.327,32,0,46.327,0,64v416     c0,17.673,14.327,32,32,32h448c17.673,0,32-14.327,32-32V64C512,46.327,497.673,32,480,32z M490.667,480     c0,5.891-4.776,10.667-10.667,10.667H32c-5.891,0-10.667-4.776-10.667-10.667V128h469.333V480z M490.667,106.667H21.333V64     c0-5.891,4.776-10.667,10.667-10.667h53.333v21.333h21.333V53.333h138.667v21.333h21.333V53.333h138.667v21.333h21.333V53.333     H480c5.891,0,10.667,4.776,10.667,10.667V106.667z" /><path
           id="path4"
           d="M181.333,224v-42.667H160v32h-53.333v21.333h64C176.558,234.667,181.333,229.891,181.333,224z" /><path
           id="path6"
           d="M224,234.667h64c5.891,0,10.667-4.776,10.667-10.667v-42.667c0-5.891-4.776-10.667-10.667-10.667h-64     c-5.891,0-10.667,4.776-10.667,10.667V224C213.333,229.891,218.109,234.667,224,234.667z M234.667,192h42.667v21.333h-42.667V192     z" /><path
           id="path8"
           d="M341.333,234.667h64c5.891,0,10.667-4.776,10.667-10.667v-42.667c0-5.891-4.776-10.667-10.667-10.667h-64     c-5.891,0-10.667,4.776-10.667,10.667V224C330.667,229.891,335.442,234.667,341.333,234.667z M352,192h42.667v21.333H352V192z" /><path
           id="path10"
           d="M106.667,341.333h64c5.891,0,10.667-4.776,10.667-10.667V288c0-5.891-4.776-10.667-10.667-10.667h-64     C100.776,277.333,96,282.109,96,288v42.667C96,336.558,100.776,341.333,106.667,341.333z M117.333,298.667H160V320h-42.667     V298.667z" /><path
           id="path12"
           d="M224,341.333h64c5.891,0,10.667-4.776,10.667-10.667V288c0-5.891-4.776-10.667-10.667-10.667h-64     c-5.891,0-10.667,4.776-10.667,10.667v42.667C213.333,336.558,218.109,341.333,224,341.333z M234.667,298.667h42.667V320h-42.667     V298.667z" /><path
           id="path14"
           d="M341.333,341.333h64c5.891,0,10.667-4.776,10.667-10.667V288c0-5.891-4.776-10.667-10.667-10.667h-64     c-5.891,0-10.667,4.776-10.667,10.667v42.667C330.667,336.558,335.442,341.333,341.333,341.333z M352,298.667h42.667V320H352     V298.667z" /><path
           id="path16"
           d="M106.667,448h64c5.891,0,10.667-4.776,10.667-10.667v-42.667c0-5.891-4.776-10.667-10.667-10.667h-64     C100.776,384,96,388.776,96,394.667v42.667C96,443.224,100.776,448,106.667,448z M117.333,405.333H160v21.333h-42.667V405.333z" /><path
           id="path18"
           d="M224,448h64c5.891,0,10.667-4.776,10.667-10.667v-42.667c0-5.891-4.776-10.667-10.667-10.667h-64     c-5.891,0-10.667,4.776-10.667,10.667v42.667C213.333,443.224,218.109,448,224,448z M234.667,405.333h42.667v21.333h-42.667     V405.333z" /><path
           id="path20"
           d="M352,405.333h53.333V384h-64c-5.891,0-10.667,4.776-10.667,10.667v42.667H352V405.333z" /><rect
           id="rect22"
           height="21.333"
           width="21.333"
           y="181.333"
           x="106.667" /><rect
           id="rect24"
           height="21.333"
           width="21.333"
           y="416"
           x="384" /></g></g></g><g
     id="g32" /><g
     id="g34" /><g
     id="g36" /><g
     id="g38" /><g
     id="g40" /><g
     id="g42" /><g
     id="g44" /><g
     id="g46" /><g
     id="g48" /><g
     id="g50" /><g
     id="g52" /><g
     id="g54" /><g
     id="g56" /><g
     id="g58" /><g
     id="g60" /></svg>