<?xml version="1.0" encoding="UTF-8" standalone="no"?>
<!-- Generator: Adobe Illustrator 19.0.0, SVG Export Plug-In . SVG Version: 6.00 Build 0)  -->

<svg
   xmlns:dc="http://purl.org/dc/elements/1.1/"
   xmlns:cc="http://creativecommons.org/ns#"
   xmlns:rdf="http://www.w3.org/1999/02/22-rdf-syntax-ns#"
   xmlns:svg="http://www.w3.org/2000/svg"
   xmlns="http://www.w3.org/2000/svg"
   xmlns:sodipodi="http://sodipodi.sourceforge.net/DTD/sodipodi-0.dtd"
   xmlns:inkscape="http://www.inkscape.org/namespaces/inkscape"
   version="1.1"
   id="Capa_1"
   x="0px"
   y="0px"
   viewBox="0 0 480 480"
   style="enable-background:new 0 0 480 480; "
   xml:space="preserve"
   sodipodi:docname="head-3.svg"
   width="58"
   height="58"
   inkscape:version="0.92.1 r15371"><metadata
     id="metadata91"><rdf:RDF><cc:Work
         rdf:about=""><dc:format>image/svg+xml</dc:format><dc:type
           rdf:resource="http://purl.org/dc/dcmitype/StillImage" /><dc:title></dc:title></cc:Work></rdf:RDF></metadata><defs
     id="defs89" /><sodipodi:namedview
     pagecolor="#ffffff"
     bordercolor="#666666"
     borderopacity="1"
     objecttolerance="10"
     gridtolerance="10"
     guidetolerance="10"
     inkscape:pageopacity="0"
     inkscape:pageshadow="2"
     inkscape:window-width="640"
     inkscape:window-height="480"
     id="namedview87"
     showgrid="false"
     inkscape:zoom="0.49166667"
     inkscape:cx="240"
     inkscape:cy="240"
     inkscape:window-x="0"
     inkscape:window-y="0"
     inkscape:window-maximized="0"
     inkscape:current-layer="Capa_1" /><g
     id="g6"><g
       id="g4"><path
         d="M56,127.929c0-4.424-3.576-8-8-8s-8,3.576-8,8c-4.424,0-8,3.576-8,8s3.576,8,8,8c0,4.424,3.576,8,8,8s8-3.576,8-8    c4.424,0,8-3.576,8-8S60.424,127.929,56,127.929z"
         id="path2" /></g></g><g
     id="g12"><g
       id="g10"><path
         d="M56,383.929c0-4.424-3.576-8-8-8s-8,3.576-8,8c-4.424,0-8,3.576-8,8s3.576,8,8,8c0,4.424,3.576,8,8,8s8-3.576,8-8    c4.424,0,8-3.576,8-8S60.424,383.929,56,383.929z"
         id="path8" /></g></g><g
     id="g18"><g
       id="g16"><path
         d="M184,127.929c0-4.424-3.576-8-8-8s-8,3.576-8,8c-4.424,0-8,3.576-8,8s3.576,8,8,8c0,4.424,3.576,8,8,8s8-3.576,8-8    c4.424,0,8-3.576,8-8S188.424,127.929,184,127.929z"
         id="path14" /></g></g><g
     id="g24"><g
       id="g22"><path
         d="M184,383.929c0-4.424-3.576-8-8-8s-8,3.576-8,8c-4.424,0-8,3.576-8,8s3.576,8,8,8c0,4.424,3.576,8,8,8s8-3.576,8-8    c4.424,0,8-3.576,8-8S188.424,383.929,184,383.929z"
         id="path20" /></g></g><g
     id="g30"><g
       id="g28"><path
         d="M312,127.929c0-4.424-3.576-8-8-8s-8,3.576-8,8c-4.424,0-8,3.576-8,8s3.576,8,8,8c0,4.424,3.576,8,8,8s8-3.576,8-8    c4.424,0,8-3.576,8-8S316.424,127.929,312,127.929z"
         id="path26" /></g></g><g
     id="g36"><g
       id="g34"><path
         d="M312,383.929c0-4.424-3.576-8-8-8s-8,3.576-8,8c-4.424,0-8,3.576-8,8s3.576,8,8,8c0,4.424,3.576,8,8,8s8-3.576,8-8    c4.424,0,8-3.576,8-8S316.424,383.929,312,383.929z"
         id="path32" /></g></g><g
     id="g42"><g
       id="g40"><path
         d="M478.152,50.801l-40-48c-3.048-3.64-9.248-3.64-12.296,0l-40,48c-1.2,1.44-1.856,3.256-1.856,5.128v72h-32v-72    c0-1.872-0.656-3.688-1.848-5.128l-40-48c-3.048-3.64-9.248-3.64-12.296,0l-40,48c-1.2,1.44-1.856,3.256-1.856,5.128v72h-32v-72    c0-1.872-0.656-3.688-1.848-5.128l-40-48c-3.048-3.64-9.248-3.64-12.296,0l-40,48c-1.2,1.44-1.856,3.256-1.856,5.128v72H96v-72    c0-1.872-0.656-3.688-1.848-5.128l-40-48c-3.048-3.64-9.248-3.64-12.296,0l-40,48C0.656,52.241,0,54.057,0,55.929v400    c0,13.232,10.768,24,24,24h48c13.232,0,24-10.768,24-24v-56h32v56c0,13.232,10.768,24,24,24h48c13.232,0,24-10.768,24-24v-56h32    v56c0,13.232,10.768,24,24,24h48c13.232,0,24-10.768,24-24v-56h32v56c0,13.232,10.768,24,24,24h48c13.232,0,24-10.768,24-24v-400    C480,54.057,479.344,52.241,478.152,50.801z M80,135.929v64v128v64v64c0,4.416-3.584,8-8,8H24c-4.416,0-8-3.584-8-8V58.825    l32-38.4l32,38.4V135.929z M128,383.929H96v-48h32V383.929z M128,319.929H96v-112h32V319.929z M128,191.929H96v-48h32V191.929z     M208,135.929v64v128v64v64c0,4.416-3.584,8-8,8h-48c-4.416,0-8-3.584-8-8v-64v-64v-128v-64V58.825l32-38.4l32,38.4V135.929z     M256,383.929h-32v-48h32V383.929z M256,319.929h-32v-112h32V319.929z M256,191.929h-32v-48h32V191.929z M336,135.929v64v128v64    v64c0,4.416-3.584,8-8,8h-48c-4.416,0-8-3.584-8-8v-64v-64v-128v-64V58.825l32-38.4l32,38.4V135.929z M384,383.929h-32v-48h32    V383.929z M384,319.929h-32v-112h32V319.929z M384,191.929h-32v-48h32V191.929z M464,455.929c0,4.416-3.584,8-8,8h-48    c-4.416,0-8-3.584-8-8v-64v-64v-128v-64V58.825l32-38.4l32,38.4V455.929z"
         id="path38" /></g></g><g
     id="g48"><g
       id="g46"><path
         d="M440,127.929c0-4.424-3.576-8-8-8s-8,3.576-8,8c-4.424,0-8,3.576-8,8s3.576,8,8,8c0,4.424,3.576,8,8,8s8-3.576,8-8    c4.424,0,8-3.576,8-8S444.424,127.929,440,127.929z"
         id="path44" /></g></g><g
     id="g54"><g
       id="g52"><path
         d="M440,383.929c0-4.424-3.576-8-8-8s-8,3.576-8,8c-4.424,0-8,3.576-8,8s3.576,8,8,8c0,4.424,3.576,8,8,8s8-3.576,8-8    c4.424,0,8-3.576,8-8S444.424,383.929,440,383.929z"
         id="path50" /></g></g><g
     id="g56" /><g
     id="g58" /><g
     id="g60" /><g
     id="g62" /><g
     id="g64" /><g
     id="g66" /><g
     id="g68" /><g
     id="g70" /><g
     id="g72" /><g
     id="g74" /><g
     id="g76" /><g
     id="g78" /><g
     id="g80" /><g
     id="g82" /><g
     id="g84" /></svg>