<svg width="94" height="51" viewBox="0 0 94 51" fill="none" xmlns="http://www.w3.org/2000/svg">
<path fill-rule="evenodd" clip-rule="evenodd" d="M37.6616 6.38576L46.2432 0.266275C46.7572 -0.10025 47.4503 -0.0879702 47.951 0.296531L55.878 6.38412C56.2318 6.65582 56.4392 7.07656 56.4392 7.52265V8.24585C56.4392 9.03866 55.7965 9.68136 55.0037 9.68136H53.5681L53.2024 18.9912C48.8412 18.6668 44.5864 18.7254 40.4846 19.084L39.9306 9.68136H38.4951C37.7023 9.68136 37.0596 9.03866 37.0596 8.24585V7.55454C37.0596 7.09054 37.2838 6.65515 37.6616 6.38576ZM32.9038 20.1019L31.4801 12.6793C31.38 12.1574 30.9998 11.7335 30.4918 11.5775L23.1062 9.30873C22.4544 9.10853 21.7518 9.39436 21.4249 9.99268L17.9912 16.2774C17.7933 16.6395 17.7609 17.0693 17.9021 17.457L20.0859 23.4524C24.0596 22.0863 28.3571 20.9251 32.9038 20.1019ZM20.7229 25.2013C23.1746 24.3597 25.7523 23.5982 28.4378 22.9492L28.9767 25.1012C29.1019 25.6011 29.6086 25.9049 30.1085 25.7797C30.6084 25.6545 30.9122 25.1478 30.787 24.6479L30.2568 22.5307C31.243 22.3153 32.2427 22.1155 33.255 21.9328L35.0343 31.2093C31.1122 31.8163 27.3613 32.6814 23.827 33.7235L20.7229 25.2013ZM24.4654 35.4761C27.9105 34.4662 31.5653 33.6287 35.3859 33.0422L37.3034 43.0392C37.5747 44.4533 36.7565 45.8496 35.3903 46.3042L31.8129 47.4947C30.3382 47.9854 28.7407 47.2135 28.2087 45.7531L24.4654 35.4761ZM14.1156 27.7781L17.6207 35.806C14.508 36.9804 11.6189 38.2714 8.99319 39.6079L3.78285 33.2504C6.69498 31.394 10.1745 29.5071 14.1156 27.7781ZM18.3663 37.5137C15.4303 38.6176 12.6972 39.8282 10.2022 41.0832L17.4679 49.9487C18.4031 51.0898 20.051 51.3364 21.2792 50.5189L21.4186 50.4261C22.5776 49.6548 23.0161 48.1631 22.459 46.8872L18.3663 37.5137ZM46.8929 32.1153C44.9895 32.1283 43.1127 32.2118 41.2668 32.3578L41.9247 43.5243C42.0141 45.0417 43.2707 46.2264 44.7908 46.2264H49.3722C50.9139 46.2264 52.1805 45.0087 52.241 43.4681L52.6798 32.2953C51.3624 32.2038 50.055 32.1478 48.7591 32.1252V34.19C48.7591 34.7053 48.3414 35.1231 47.826 35.1231C47.3107 35.1231 46.8929 34.7053 46.8929 34.19V32.1153ZM41.1569 30.4931C44.9092 30.1965 48.7864 30.1526 52.7533 30.4243L53.1289 20.8628C51.6594 20.7518 50.2022 20.6853 48.7591 20.66V22.7248C48.7591 23.2402 48.3414 23.6579 47.826 23.6579C47.3107 23.6579 46.8929 23.2402 46.8929 22.7248V20.6501C44.758 20.6648 42.6564 20.768 40.5945 20.9487L41.1569 30.4931ZM56.1953 43.0392L58.1443 32.878C61.7424 33.3971 65.3996 34.196 69.0899 35.321L65.29 45.7531C64.7581 47.2135 63.1606 47.9854 61.6858 47.4947L58.1084 46.3042C56.7422 45.8496 55.9241 44.4533 56.1953 43.0392ZM58.4975 31.0369C62.1903 31.5735 65.944 32.3983 69.7316 33.5592L72.8129 25.0996C68.5904 23.564 64.3993 22.4712 60.2783 21.7527L58.4975 31.0369ZM71.0397 46.8872L75.1553 37.4612C77.8211 38.5328 80.4966 39.785 83.1722 41.2349L76.0308 49.9487C75.0956 51.0898 73.4478 51.3364 72.2195 50.5189L72.0801 50.4261C70.9212 49.6548 70.4826 48.1631 71.0397 46.8872ZM75.9042 35.7459C78.7216 36.8817 81.5496 38.2147 84.3774 39.7643L89.4653 33.5561C86.1018 31.3252 82.7265 29.4294 79.3585 27.8346L75.9042 35.7459ZM13.3708 26.0725L11.596 22.0076C11.3676 21.4846 10.8511 21.1465 10.2804 21.1465H4.21116C3.66778 21.1465 3.17096 21.4533 2.92763 21.9392L0.152788 27.4796C-0.100855 27.9861 -0.0329918 28.5943 0.326038 29.0324L2.59248 31.7979C5.61592 29.8578 9.24712 27.8807 13.3708 26.0725ZM90.6543 32.1053C87.1442 29.7656 83.6215 27.7831 80.1069 26.1206L81.9027 22.0076C82.1311 21.4846 82.6476 21.1465 83.2183 21.1465H89.2876C89.831 21.1465 90.3278 21.4533 90.5711 21.9392L93.3459 27.4796C93.5996 27.9861 93.5317 28.5943 93.1727 29.0324L90.6543 32.1053ZM73.4535 23.341C69.1338 21.7688 64.8467 20.6495 60.6311 19.913L62.0186 12.6793C62.1187 12.1574 62.4989 11.7335 63.0069 11.5775L70.3926 9.30873C71.0443 9.10853 71.747 9.39436 72.0739 9.99268L75.5076 16.2774C75.7055 16.6395 75.7379 17.0693 75.5967 17.457L73.4535 23.341Z" fill="#CC6666"/>
<path d="M6.91345 44.0768C22.2258 32.6116 57.1569 25.4459 85.8675 43.3602" stroke="#CC6666" stroke-width="1.86617" stroke-linecap="round"/>
<path d="M1.88904 35.4779C17.2013 24.0128 50.697 8.96481 91.6095 34.7613" stroke="#CC6666" stroke-width="1.86617" stroke-linecap="round"/>
</svg>
