<svg width="28" height="20" viewBox="0 0 28 20" fill="none" xmlns="http://www.w3.org/2000/svg">
<path fill-rule="evenodd" clip-rule="evenodd" d="M3.41562 0.0531487C1.90369 0.268889 0.459706 1.57487 0.142609 3.01335C0.11359 3.145 13.3143 11.3009 13.5564 11.3009C13.7985 11.3009 26.9995 3.145 26.9705 3.01335C26.6514 1.56391 25.2437 0.294943 23.6874 0.05389C23.2265 -0.0174938 3.91562 -0.0181822 3.41562 0.0531487ZM5.74356e-07 11.01C5.74356e-07 16.809 -0.00232946 16.7565 0.289825 17.4849C0.765682 18.6713 1.79836 19.5696 3.05923 19.8939C3.60938 20.0354 23.5038 20.0354 24.0539 19.8939C25.3147 19.5696 26.3461 18.6725 26.8236 17.4849C27.1184 16.7518 27.1167 16.7915 27.1011 10.9949L27.0867 5.65815L20.732 9.53263C13.6985 13.8211 14.0629 13.6137 13.5566 13.6137C13.0498 13.6137 13.4026 13.8143 6.4767 9.59078C3.03424 7.49147 0.168716 5.7477 0.108824 5.71566L5.74356e-07 5.65741V11.01Z" fill="#CC6666"/>
</svg>
