<?xml version="1.0" encoding="utf-8"?><svg xmlns="http://www.w3.org/2000/svg" xmlns:xlink="http://www.w3.org/1999/xlink"><symbol viewBox="0 0 11 21" id="arr-bot" xmlns="http://www.w3.org/2000/svg"><path d="M.75 20.25l9.5-9.5-9.5-9.5"/></symbol><symbol viewBox="0 0 20 20" id="calculator" xmlns="http://www.w3.org/2000/svg"><path d="M16.819 0H3.182a.91.91 0 0 0-.909.91v18.18c0 .503.407.91.91.91h13.636a.91.91 0 0 0 .909-.91V.91a.91.91 0 0 0-.91-.91zm-.91 1.818v2.727H4.091V1.818H15.91zM4.091 18.182V6.363H15.91v11.818H4.091v.001z"/><path d="M7.342 7.168H5.454A.455.455 0 0 0 5 7.622V9.51c0 .252.204.455.454.455h1.888a.455.455 0 0 0 .454-.455V7.622a.453.453 0 0 0-.454-.454zm3.601 0H9.057a.455.455 0 0 0-.455.454V9.51c0 .252.204.455.455.455h1.886a.455.455 0 0 0 .455-.455V7.622a.454.454 0 0 0-.455-.454zm3.603 0h-1.888a.454.454 0 0 0-.454.454V9.51c0 .252.204.455.454.455h1.888A.455.455 0 0 0 15 9.51V7.622a.454.454 0 0 0-.454-.454zm-7.204 3.706H5.454a.454.454 0 0 0-.454.454v1.889c0 .25.204.454.454.454h1.888a.454.454 0 0 0 .454-.454v-1.889a.453.453 0 0 0-.454-.454zm3.601 0H9.057a.454.454 0 0 0-.455.454v1.889c0 .25.204.454.455.454h1.886a.454.454 0 0 0 .455-.454v-1.889a.454.454 0 0 0-.455-.454zm-3.601 3.707H5.454a.454.454 0 0 0-.454.454v1.888c0 .252.204.455.454.455h1.888a.455.455 0 0 0 .454-.455v-1.888a.453.453 0 0 0-.454-.454zm3.601 0H9.057a.454.454 0 0 0-.455.454v1.888c0 .252.204.455.455.455h1.886a.455.455 0 0 0 .455-.455v-1.888a.453.453 0 0 0-.455-.454zm3.603-3.707h-1.888a.454.454 0 0 0-.454.454v5.595c0 .252.204.455.454.455h1.888a.455.455 0 0 0 .454-.455v-5.595a.454.454 0 0 0-.454-.454z"/></symbol><symbol viewBox="0 0 344.96 344.96" id="check" xmlns="http://www.w3.org/2000/svg"><g data-name="Слой 2"><path d="M321.85 86.24l-40-23.11-23.1-40H212.5L172.48 0l-40 23.11H86.24l-23.11 40-40 23.1v46.21L0 172.48l23.11 40v46.21l40 23.11 23.11 40h46.21l40 23.1 40-23.11h46.21l23.11-40 40-23.11V212.5l23.11-40-23.11-40V86.24zM156.91 243.07a16.79 16.79 0 0 1-23.34 0l-50.45-50.44a16.19 16.19 0 0 1 0-22.89l13.35-13.35a16.19 16.19 0 0 1 22.89 0l25.87 25.87 80.34-80.35a16.19 16.19 0 0 1 22.89 0l13.35 13.35a16.19 16.19 0 0 1 0 22.89z" data-name="Capa 1"/></g></symbol><symbol viewBox="0 0 18 18" id="clock" xmlns="http://www.w3.org/2000/svg"><path d="M9 0a9 9 0 1 0 0 18A9 9 0 0 0 9 0zm3.89 10.712H9.076c-.013 0-.025-.003-.038-.004-.012 0-.024.004-.037.004a.622.622 0 0 1-.623-.623V3.735a.622.622 0 0 1 1.245 0v5.732h3.268a.622.622 0 0 1 0 1.245z"/></symbol><symbol viewBox="0 0 36 36" id="clock-2" xmlns="http://www.w3.org/2000/svg"><path d="M17.995 0C8.057 0 0 8.057 0 17.995s8.057 17.994 17.995 17.994 17.994-8.056 17.994-17.994C35.977 8.062 27.928.013 17.995 0zm.772 34.407v-3.165a.772.772 0 0 0-1.544 0v3.165c-8.465-.404-15.236-7.175-15.64-15.64h3.165a.772.772 0 0 0 0-1.544H1.583c.404-8.465 7.175-15.236 15.64-15.64v3.165a.772.772 0 0 0 1.544 0V1.583c8.465.404 15.236 7.175 15.64 15.64h-3.165a.772.772 0 0 0 0 1.544h3.173c-.405 8.467-7.18 15.24-15.648 15.64z"/><path d="M26.139 25.174l-7.372-7.496V9.89a.772.772 0 0 0-1.544 0v8.106c0 .202.08.396.224.54l7.588 7.72a.773.773 0 0 0 1.104-1.08z"/></symbol><symbol viewBox="0 0 18 13" id="dots" xmlns="http://www.w3.org/2000/svg"><path d="M0 0h3v3H0zm5 0h3v3H5zm5 0h3v3h-3zm5 0h3v3h-3zM0 5h3v3H0zm5 0h3v3H5zm5 0h3v3h-3zm5 0h3v3h-3zM0 10h3v3H0zm5 0h3v3H5zm5 0h3v3h-3zm5 0h3v3h-3z"/></symbol><symbol viewBox="0 0 20 20" id="envelope" xmlns="http://www.w3.org/2000/svg"><g clip-path="url(#gclip0)"><path d="M1.92 6.987c.253.178 1.015.708 2.288 1.59a559.43 559.43 0 0 1 2.924 2.037c.074.052.232.165.474.34.242.175.443.317.603.424.16.108.353.23.58.363.227.134.44.235.642.301.2.067.387.1.558.1h.022c.171 0 .357-.033.558-.1.201-.066.415-.167.642-.3.227-.135.42-.256.58-.364.16-.107.361-.249.603-.424s.4-.288.474-.34l5.224-3.628a5.298 5.298 0 0 0 1.361-1.372c.365-.536.547-1.098.547-1.685a1.71 1.71 0 0 0-.53-1.261 1.725 1.725 0 0 0-1.256-.525H1.786c-.573 0-1.014.193-1.323.58C.154 3.11 0 3.593 0 4.174c0 .469.205.977.614 1.524.409.547.844.976 1.306 1.289z"/><path d="M18.884 8.18c-2.44 1.652-4.293 2.936-5.558 3.851-.424.313-.768.556-1.032.731a6.373 6.373 0 0 1-1.055.536c-.439.182-.848.273-1.228.273H9.99c-.38 0-.789-.09-1.228-.273a6.378 6.378 0 0 1-1.055-.536 26.482 26.482 0 0 1-1.032-.73c-1.004-.737-2.853-2.02-5.547-3.851A5.912 5.912 0 0 1 0 7.21v8.861c0 .492.175.912.525 1.261.35.35.77.525 1.26.525h16.43a1.72 1.72 0 0 0 1.26-.524c.35-.35.525-.77.525-1.262V7.21c-.32.357-.692.68-1.116.97z"/></g><defs><clipPath id="gclip0"><path d="M0 0h20v20H0z"/></clipPath></defs></symbol><symbol viewBox="0 0 36 28" id="mail" xmlns="http://www.w3.org/2000/svg"><path d="M34.19 0H1.8A1.8 1.8 0 0 0 0 1.8v23.992a1.8 1.8 0 0 0 1.8 1.8h32.39a1.8 1.8 0 0 0 1.8-1.8V1.8a1.8 1.8 0 0 0-1.8-1.8zm.6 25.793a.6.6 0 0 1-.6.6H1.8a.6.6 0 0 1-.6-.6V1.799a.6.6 0 0 1 .6-.6h32.39a.6.6 0 0 1 .6.6v23.994z"/><path d="M33.044 2.401a.6.6 0 0 0-.438.139L18.768 14.164a1.2 1.2 0 0 1-1.544 0L3.386 2.54a.6.6 0 0 0-.771.919l13.838 11.623a2.395 2.395 0 0 0 3.086 0L33.377 3.46a.6.6 0 0 0-.333-1.058zM11.537 15a.6.6 0 0 0-.578.186L2.56 24.184a.6.6 0 1 0 .877.818l8.398-8.997A.6.6 0 0 0 11.537 15zm13.495.186a.6.6 0 1 0-.877.819l8.398 8.997a.6.6 0 0 0 .877-.818l-8.398-8.998z"/></symbol><symbol viewBox="0 0 36 36" id="phone" xmlns="http://www.w3.org/2000/svg"><path d="M35.045 27.764l-7.284-4.858a2.126 2.126 0 0 0-2.847.462l-2.122 2.729a.907.907 0 0 1-1.163.244l-.404-.222c-1.338-.73-3.003-1.637-6.357-4.993-3.354-3.356-4.264-5.022-4.993-6.357l-.222-.404a.908.908 0 0 1 .24-1.167l2.727-2.121a2.127 2.127 0 0 0 .463-2.847L8.225.946A2.115 2.115 0 0 0 5.374.304l-3.046 1.83a4.297 4.297 0 0 0-1.96 2.542c-1.096 3.997-.271 10.895 9.89 21.056 8.082 8.083 14.1 10.256 18.235 10.256.952.004 1.9-.12 2.819-.368a4.293 4.293 0 0 0 2.543-1.96l1.831-3.044a2.114 2.114 0 0 0-.641-2.852zM34.653 30l-1.828 3.046a3.1 3.1 0 0 1-1.829 1.418c-3.69 1.013-10.135.174-19.89-9.581-9.755-9.755-10.594-16.2-9.58-19.89a3.104 3.104 0 0 1 1.419-1.832L5.99 1.335a.918.918 0 0 1 1.237.278l2.639 3.962 2.215 3.322a.923.923 0 0 1-.2 1.235l-2.727 2.121a2.1 2.1 0 0 0-.556 2.694l.216.394c.767 1.406 1.72 3.155 5.199 6.633s5.227 4.431 6.632 5.198l.394.217a2.1 2.1 0 0 0 2.694-.556l2.121-2.727a.924.924 0 0 1 1.236-.2l7.284 4.858A.917.917 0 0 1 34.653 30z"/></symbol></svg>