<svg width="24" height="24" viewBox="0 0 24 24" fill="none" xmlns="http://www.w3.org/2000/svg">
<g clip-path="url(#clip0)">
<path d="M12.0004 0.00233361C5.5156 -0.125529 0.14959 5.01691 0.00152588 11.5012C0.0184461 14.802 1.48001 17.9298 4.00112 20.0604V23.5C4.00112 23.7762 4.22497 24 4.50109 24C4.59478 24 4.6866 23.9737 4.76605 23.924L7.55277 22.1832C8.97257 22.7263 10.4803 23.0032 12.0004 23.0001C18.4851 23.128 23.8511 17.9855 23.9992 11.5013C23.8511 5.01691 18.4851 -0.125529 12.0004 0.00233361Z" fill="#2196F3"/>
<path d="M9.79713 13.4145L9.57382 16.5555C9.89332 16.5555 10.0317 16.4182 10.1976 16.2534L11.6956 14.8219L14.7994 17.0949C15.3687 17.4122 15.7697 17.2451 15.9233 16.5712L17.9607 7.02454L17.9612 7.02397C18.1418 6.18248 17.6569 5.85342 17.1023 6.05985L5.12672 10.6448C4.30941 10.962 4.32179 11.4176 4.98778 11.6241L8.04946 12.5764L15.1611 8.12647C15.4958 7.90484 15.8001 8.02747 15.5498 8.24909L9.79713 13.4145Z" fill="white"/>
</g>
<defs>
<clipPath id="clip0">
<rect width="24" height="24" fill="white"/>
</clipPath>
</defs>
</svg>
