<svg width="24" height="24" viewBox="0 0 24 24" fill="none" xmlns="http://www.w3.org/2000/svg">
<path d="M11.9936 5.77182e-06C5.37007 0.00141192 0.00178953 5.37479 0.00319495 12.0017C0.00366342 14.2964 0.661822 16.5429 1.89953 18.4747L0.0336457 23.3184C-0.0657175 23.576 0.0624569 23.8655 0.31993 23.9649C0.377505 23.9871 0.438641 23.9985 0.500339 23.9984C0.557586 23.9987 0.614412 23.9889 0.66824 23.9694L5.66531 22.1845C11.2875 25.6879 18.6839 23.9679 22.1855 18.3427C25.687 12.7174 23.9679 5.31728 18.3456 1.8139C16.4398 0.626259 14.2389 -0.0021972 11.9936 5.77182e-06Z" fill="#01579B"/>
<path d="M17.625 12.9491V12.544L19.7381 9.90052C20.0691 9.48603 20.2495 8.9714 20.25 8.44091C20.2496 7.9236 19.8306 7.50431 19.3135 7.50394H17.0114C16.6559 7.50274 16.3346 7.71569 16.197 8.04366C15.7518 9.26883 15.166 10.4382 14.4514 11.5282C14.2314 11.7009 13.9283 11.7217 13.6868 11.5807V8.22227C13.6847 7.82671 13.3649 7.50647 12.9696 7.50394H10.0781C9.8969 7.5036 9.74973 7.65035 9.7494 7.83166C9.74924 7.91907 9.78394 8.00294 9.8458 8.06468L10.0256 8.24458C10.2698 8.48748 10.4069 8.81797 10.4062 9.1625V11.6576C10.3755 11.689 10.3358 11.7103 10.2927 11.7186C10.1709 11.6998 10.0604 11.6367 9.98226 11.5413C9.13776 10.3156 8.39 9.02584 7.74576 7.68387C7.68987 7.5735 7.57673 7.50397 7.45306 7.50397H5.35312C4.88197 7.50397 4.5 7.88611 4.5 8.35753V8.52496C4.49945 9.21747 4.69242 9.89633 5.05716 10.4849C6.81722 13.3181 9.23091 16.6963 10.7344 16.6963H12.881C13.3261 16.6956 13.6868 16.3347 13.6875 15.8893V15.3273C13.6874 14.9958 13.9558 14.727 14.2871 14.7269C14.4465 14.7268 14.5993 14.7902 14.7119 14.9031L16.0743 16.2662C16.3496 16.5425 16.7238 16.6973 17.1138 16.6963H19.4553C19.8935 16.6956 20.2482 16.3397 20.2475 15.9013C20.2472 15.6914 20.1639 15.4902 20.0157 15.3417L17.625 12.9491Z" fill="white"/>
</svg>
