<svg width="24" height="24" viewBox="0 0 24 24" fill="none" xmlns="http://www.w3.org/2000/svg">
<g clip-path="url(#clip0)">
<path d="M11.9936 0.00626187C5.37007 0.00766729 0.00178953 5.37823 0.00319495 12.0017C0.00366342 14.2952 0.661822 16.5405 1.89953 18.4713L0.0336457 23.3125C-0.0657175 23.5699 0.0624569 23.8592 0.31993 23.9586C0.377505 23.9808 0.438641 23.9922 0.500339 23.9921C0.557586 23.9924 0.614412 23.9826 0.66824 23.9631L5.66531 22.1791C11.2875 25.6807 18.6839 23.9616 22.1855 18.3393C25.687 12.717 23.9679 5.32075 18.3456 1.8192C16.4398 0.632188 14.2389 0.00406005 11.9936 0.00626187Z" fill="#4CAF50"/>
<path d="M17.7112 14.049C17.7112 14.049 16.4869 13.4493 15.7204 13.0496C14.8529 12.6028 13.8335 13.4393 13.3538 13.9151C12.6072 13.6283 11.9253 13.1954 11.348 12.6418C10.7943 12.0646 10.3614 11.3827 10.0747 10.636C10.5504 10.1553 11.3849 9.13688 10.9402 8.26941C10.5454 7.50186 9.94082 6.27858 9.94082 6.2776C9.85598 6.10923 9.68363 6.00293 9.49507 6.00275H8.49568C7.04023 6.25413 5.98199 7.52407 5.99717 9.00097C5.99717 10.57 7.87504 13.5843 9.14133 14.8515C10.4076 16.1187 13.4218 17.9957 14.9918 17.9957C16.4688 18.0108 17.7387 16.9525 17.9901 15.4971V14.4978C17.9902 14.3072 17.8821 14.1331 17.7112 14.049Z" fill="#FAFAFA"/>
</g>
<defs>
<clipPath id="clip0">
<rect width="24" height="24" fill="white"/>
</clipPath>
</defs>
</svg>
