<svg width="73" height="73" viewBox="0 0 73 73" fill="none" xmlns="http://www.w3.org/2000/svg">
<g clip-path="url(#clip0)">
<path d="M36.4819 0C24.9167 0 15.5078 9.40902 15.5078 20.9741C15.5078 25.7815 17.1716 30.4685 20.1962 34.1919C20.2187 34.2269 20.243 34.261 20.2689 34.294L35.358 53.6253C35.6282 53.9715 36.0428 54.1738 36.4819 54.1738C36.9211 54.1738 37.3355 53.9714 37.6057 53.6251L52.7672 34.1921C52.7725 34.1852 52.7776 34.1785 52.7827 34.1717C55.7964 30.453 57.4557 25.7683 57.4557 20.9741C57.456 9.40902 48.0471 0 36.4819 0ZM50.537 32.4143C50.5189 32.4365 50.5018 32.4589 50.4852 32.4819L36.4816 50.4309L22.6193 32.6713C22.5848 32.615 22.546 32.5607 22.5033 32.5088C19.8308 29.2741 18.3591 25.1777 18.3591 20.9741C18.3591 10.9812 26.489 2.85128 36.4819 2.85128C46.4748 2.85128 54.6047 10.9812 54.6049 20.9741C54.6049 25.1328 53.1601 29.1957 50.537 32.4143Z" fill="#4D453C"/>
<path d="M48.7872 17.6452C48.5644 16.89 47.7715 16.4586 47.0164 16.6813C46.2612 16.9041 45.8296 17.6969 46.0524 18.4521C47.0888 21.9654 46.1254 25.7552 43.5381 28.3426C41.6533 30.2275 39.1472 31.2654 36.4817 31.2654C33.8162 31.2654 31.3101 30.2275 29.4252 28.3425C27.5404 26.4576 26.5024 23.9516 26.5024 21.286C26.5024 18.6203 27.5404 16.1142 29.4254 14.2295C32.0153 11.6394 35.8083 10.6769 39.3243 11.7177C40.0795 11.9414 40.8726 11.5104 41.096 10.7554C41.3195 10.0005 40.8885 9.20719 40.1337 8.98377C35.6146 7.6461 30.739 8.88368 27.4093 12.2133C24.9861 14.6367 23.6514 17.8588 23.6514 21.286C23.6514 24.7131 24.9859 27.9351 27.4093 30.3585C29.8327 32.7819 33.0549 34.1166 36.482 34.1166C39.9092 34.1166 43.1311 32.7819 45.5545 30.3588C48.8807 27.0326 50.1195 22.161 48.7872 17.6452Z" fill="#4D453C"/>
<path d="M45.5798 12.2384L45.5546 12.213C44.9977 11.6562 44.095 11.6562 43.5384 12.213C42.9816 12.7699 42.9816 13.6726 43.5384 14.2292L43.5636 14.2546C43.8419 14.533 44.2068 14.6722 44.5716 14.6722C44.9365 14.6722 45.3013 14.533 45.5798 14.2546C46.1364 13.6978 46.1364 12.7951 45.5798 12.2384Z" fill="#4D453C"/>
<path d="M58.4012 43.5298C57.6534 43.2841 56.8474 43.6903 56.6013 44.4383C56.3552 45.1861 56.7619 45.992 57.5098 46.2382C65.4214 48.8417 70.1446 52.7425 70.1446 56.6727C70.1446 59.9959 66.7172 63.3584 60.7409 65.8978C54.2892 68.6391 45.6804 70.1489 36.4999 70.1489C27.3194 70.1489 18.7106 68.6391 12.2589 65.8978C6.28273 63.3584 2.85515 59.996 2.85515 56.6727C2.85515 53.8895 5.2556 51.0625 9.6145 48.712C14.2199 46.2284 20.7422 44.4298 27.9796 43.6474C28.7623 43.5627 29.3284 42.8597 29.2437 42.0768C29.159 41.294 28.4556 40.7274 27.673 40.8127C20.0775 41.6338 13.1835 43.5479 8.261 46.2024C2.85915 49.1154 0.00387573 52.7359 0.00387573 56.6727C0.00387573 61.2613 3.96013 65.4695 11.1438 68.5219C17.9403 71.4095 26.9452 73 36.5 73C46.0549 73 55.0597 71.4095 61.856 68.5219C69.0396 65.4695 72.9959 61.2614 72.9959 56.6727C72.9959 51.3725 67.6765 46.5821 58.4012 43.5298Z" fill="#4D453C"/>
<path d="M51.878 41.8206L51.8284 41.8106C51.0566 41.6551 50.3047 42.1545 50.149 42.9263C49.9934 43.6981 50.4929 44.45 51.2646 44.6057L51.3142 44.6157C51.4095 44.6348 51.5042 44.6441 51.5977 44.6441C52.2622 44.6441 52.8571 44.1766 52.9937 43.5C53.1492 42.7282 52.6498 41.9763 51.878 41.8206Z" fill="#4D453C"/>
<path d="M25.721 48.0518C25.5666 47.2799 24.8156 46.7793 24.0434 46.9334C24.0113 46.9398 23.9772 46.9478 23.9456 46.9565C23.1861 47.1637 22.7382 47.9473 22.9454 48.7069C23.1183 49.3411 23.6929 49.7579 24.32 49.7579C24.4322 49.7579 24.5458 49.7446 24.6593 49.7168C25.3992 49.5379 25.8717 48.8049 25.721 48.0518Z" fill="#4D453C"/>
<path d="M41.2569 45.7314C40.4711 45.6708 39.7857 46.2565 39.7243 47.0414C39.6628 47.8263 40.2494 48.5125 41.0343 48.5739C50.3425 49.3025 55.3001 52.025 55.3001 53.7102C55.3001 54.5232 54.0041 55.9042 50.3513 57.1206C46.6725 58.3458 41.7535 59.0206 36.5 59.0206C31.2466 59.0206 26.3274 58.346 22.6487 57.1206C18.996 55.9042 17.7 54.5232 17.7 53.7102C17.7 52.9672 18.7076 52.0305 20.3953 51.2048C21.1024 50.8588 21.3952 50.005 21.0491 49.2978C20.7031 48.5906 19.8493 48.2978 19.142 48.6439C15.5935 50.3803 14.8485 52.3574 14.8485 53.7105C14.8485 59.0687 25.7405 61.8722 36.4999 61.8722C47.2593 61.8722 58.1512 59.0687 58.1514 53.7103C58.1515 48.7971 49.0505 46.3415 41.2569 45.7314Z" fill="#4D453C"/>
</g>
<defs>
<clipPath id="clip0">
<rect width="73" height="73" fill="white"/>
</clipPath>
</defs>
</svg>
