<svg width="68" height="68" viewBox="0 0 68 68" fill="none" xmlns="http://www.w3.org/2000/svg">
<path d="M68 13.3664L54.6023 0H37.7222L31.0697 6.63076C14.5284 5.25061 1.19091 14.5561 1.00408 14.6899C0.462864 15.0756 0.3363 15.829 0.72443 16.3714C0.959478 16.6993 1.32953 16.8752 1.7056 16.8752C1.94789 16.8752 2.19258 16.8017 2.40472 16.6498C2.57227 16.5305 14.1113 8.48222 28.7795 8.91254L7.23104 30.3911L7.24068 30.4008L0 37.6234L30.3103 68L42.4123 55.9306C44.8978 57.2324 47.7895 57.8724 50.6498 57.8712C54.8699 57.8712 59.0091 56.4995 61.6199 53.8887C70.4999 45.0075 66.9754 35.2656 65.7701 32.6343L67.9988 30.4104V13.3664H68ZM53.6066 2.41075L65.5892 14.3669V29.4099L42.0386 52.8834C37.1159 49.3541 35.6176 42.7317 37.8283 34.0482C37.9934 33.4033 37.6029 32.7464 36.958 32.5825C36.3107 32.4101 35.6574 32.8079 35.4923 33.4528C32.3715 45.7078 36.565 51.7515 40.3125 54.6035L37.5486 57.3589L10.6507 30.4044L31.9617 9.14879C37.0219 9.72737 42.3653 11.398 47.687 14.7743C47.64 15.0407 47.6051 15.3119 47.6051 15.5915C47.6051 18.2072 49.7325 20.3347 52.3482 20.3347C54.9639 20.3347 57.0926 18.2072 57.0926 15.5915C57.0926 12.9759 54.9639 10.8484 52.3482 10.8484C50.8825 10.8484 49.5867 11.5306 48.7164 12.5793C43.7876 9.49715 38.848 7.77949 34.1097 7.00805L38.7178 2.41075H53.6066ZM50.4015 16.6342C50.9343 17.0344 51.6901 16.9271 52.0878 16.3931C52.488 15.8615 52.3795 15.1058 51.8468 14.7068C51.4743 14.4283 51.1006 14.1824 50.7282 13.9209C51.1489 13.5122 51.719 13.2591 52.3482 13.2591C53.6343 13.2591 54.6818 14.3054 54.6818 15.5927C54.6818 16.8777 53.6355 17.9251 52.3482 17.9251C51.3803 17.9251 50.5498 17.3321 50.1966 16.4907C50.2653 16.5401 50.334 16.5823 50.4015 16.6342ZM3.4088 37.6282L8.94388 32.1076L35.8503 59.0718L30.3152 64.5924L3.4088 37.6282ZM59.9156 52.1843C56.8105 55.2869 49.8266 56.702 44.2095 54.1382L63.9475 34.452C65.1469 37.4365 67.0875 45.0111 59.9156 52.1843Z" fill="#4D453C"/>
</svg>
