<svg width="70" height="70" viewBox="0 0 70 70" fill="none" xmlns="http://www.w3.org/2000/svg">
<g clip-path="url(#clip0)">
<path d="M69.4004 50.251L65.9578 34.1854C65.8661 33.7574 65.5387 33.4191 65.1139 33.3136L56.2429 31.0947L52.2131 27.0659V9.14492C52.9543 8.16334 53.3569 6.96775 53.3607 5.73772C53.3688 2.57711 50.8134 0.00833861 47.6528 1.89412e-05C45.8101 -0.00471467 44.0778 0.878032 42.9988 2.3717L9.67795 4.59262L9.67809 4.5942C5.88246 4.62934 2.83416 7.73473 2.8693 11.5304C2.88723 13.4657 3.72035 15.3039 5.1641 16.593V53.9346H1.72133C1.08789 53.9342 0.574222 54.4474 0.573792 55.0808C0.573792 55.0813 0.573792 55.0817 0.573792 55.0821V67.7051C0.573361 68.3385 1.0866 68.8522 1.72004 68.8526C1.72047 68.8526 1.7209 68.8526 1.72133 68.8526H17.7869C18.4203 68.8531 18.934 68.3398 18.9344 67.7064C18.9344 67.706 18.9344 67.7055 18.9344 67.7051V55.0821C18.9349 54.4487 18.4216 53.935 17.7882 53.9346C17.7878 53.9346 17.7873 53.9346 17.7869 53.9346H14.3443V16.9866L43.0328 10.6115V27.0659L39.0567 31.0409L30.2676 32.1402C29.7776 32.2016 29.3818 32.5694 29.2847 33.0535L25.8421 50.2666C25.7404 50.7741 25.991 51.2869 26.454 51.5184L33.3392 54.9611C33.9063 55.2447 34.5958 55.0147 34.8794 54.4477C35.0243 54.1581 35.04 53.8207 34.9227 53.5188L32.8507 48.1856L35.91 39.8682L45.571 35.5739H49.6748L59.3358 39.8683L62.3951 48.1857L60.3231 53.5189C60.0937 54.11 60.3871 54.7752 60.9783 55.0045C61.28 55.1216 61.6171 55.1058 61.9067 54.9612L68.7919 51.5186C69.2603 51.2844 69.5106 50.7628 69.4004 50.251ZM2.86887 66.5575V59.0234L7.66344 66.5575H2.86887ZM16.6394 66.5575H11.8448L16.6394 59.0234V66.5575ZM15.6962 56.2297L9.75412 65.5681L3.81201 56.2297H15.6962ZM7.45904 53.9346V17.9592C8.94223 18.4948 10.566 18.4948 12.0492 17.9592V53.9346H7.45904ZM9.75412 16.0657C7.21906 16.0657 5.16395 14.0106 5.16395 11.4756C5.16395 8.94051 7.21906 6.88541 9.75412 6.88541C12.2892 6.88541 14.3443 8.94051 14.3443 11.4756C14.3417 14.0096 12.2882 16.0632 9.75412 16.0657ZM16.0478 14.2562C17.2128 11.6371 16.625 8.56971 14.5742 6.56697L41.9862 4.74008C41.9233 5.06914 41.8896 5.40293 41.8853 5.73787C41.8916 6.65518 42.1207 7.55715 42.5527 8.36631L16.0478 14.2562ZM47.623 2.29524C49.5243 2.29524 51.0656 3.83654 51.0656 5.73787C51.0656 7.6392 49.5243 9.18049 47.623 9.18049C45.7216 9.18049 44.1803 7.6392 44.1803 5.73787C44.1824 3.8374 45.7225 2.29725 47.623 2.29524ZM49.918 10.9892V26.3936H45.3279V10.9892C46.7893 11.6377 48.4567 11.6377 49.918 10.9892ZM63.5395 51.5778L64.6926 48.6126C64.7935 48.352 64.7958 48.0635 64.6994 47.8013L61.3229 38.6209C61.216 38.3296 60.9957 38.0938 60.7121 37.9676L50.3842 33.3774C50.2374 33.3124 50.0786 33.2789 49.918 33.2787H45.3279C45.1674 33.2787 45.0086 33.3123 44.8617 33.3774L34.5338 37.9676C34.2502 38.0938 34.0299 38.3295 33.923 38.6209L30.5466 47.8013C30.4502 48.0635 30.4525 48.352 30.5533 48.6126L31.7064 51.5778L28.265 49.8577L31.3725 34.3154L39.7325 33.2698C39.9856 33.2383 40.2212 33.1231 40.4015 32.9426L44.6556 28.6887H50.5905L54.8444 32.9426C54.9918 33.0895 55.1761 33.1938 55.3779 33.2441L63.8634 35.3667L66.9709 49.8634L63.5395 51.5778Z" fill="#4D453C"/>
<path d="M9.75407 13.7706C11.0216 13.7706 12.0491 12.743 12.0491 11.4755C12.0491 10.208 11.0216 9.18042 9.75407 9.18042C8.48653 9.18042 7.45898 10.208 7.45898 11.4755C7.45898 12.743 8.48653 13.7706 9.75407 13.7706Z" fill="#4D453C"/>
<path d="M58.3463 48.273L56.9701 47.6657C56.9231 47.501 56.8737 47.3396 56.8199 47.1815L57.5876 45.858C57.7905 45.5076 57.7939 45.0764 57.5967 44.7228C57.1751 43.9711 56.6723 43.268 56.0973 42.6261C55.8194 42.3128 55.3923 42.1768 54.9844 42.2719L53.5388 42.6026C53.4166 42.5085 53.2923 42.4165 53.1656 42.328L53.0244 40.7893C52.9824 40.337 52.678 39.952 52.2478 39.8064L50.076 39.0757C49.6337 38.9271 49.1456 39.0608 48.8411 39.4141L47.8224 40.5952H47.4234L46.407 39.4151C46.1028 39.0614 45.6145 38.9271 45.1721 39.0756L42.9992 39.8063C42.5685 39.9513 42.2637 40.3366 42.2215 40.7892L42.0803 42.3279C41.9537 42.4175 41.8293 42.5095 41.7082 42.6024L40.2615 42.2718C39.8537 42.1771 39.4268 42.313 39.1487 42.6259C38.5742 43.2678 38.0714 43.9706 37.6493 44.7215C37.452 45.0754 37.4555 45.507 37.6583 45.8578L38.426 47.1814C38.3722 47.3395 38.3229 47.5008 38.2758 47.6655L36.8996 48.2728C36.4833 48.456 36.2147 48.868 36.215 49.3228V51.6605C36.2147 52.1154 36.4833 52.5274 36.8996 52.7105L38.2758 53.3179C38.3229 53.4825 38.3722 53.6439 38.426 53.802L37.6583 55.1255C37.4321 55.5158 37.4553 56.0025 37.7177 56.3695L39.0715 58.2612C39.34 58.639 39.8102 58.817 40.2616 58.7117L41.707 58.3811C41.8292 58.4752 41.9535 58.5672 42.0802 58.6557L42.2213 60.1944C42.2634 60.6466 42.5678 61.0316 42.9979 61.1772L45.1698 61.9079C45.612 62.0567 46.1002 61.923 46.4047 61.5695L47.4234 60.3884H47.8224L48.8388 61.5685C49.1433 61.922 49.6313 62.0561 50.0737 61.9081L52.2466 61.1774C52.6773 61.0324 52.9821 60.6471 53.0243 60.1945L53.1655 58.6558C53.2921 58.5661 53.4165 58.4742 53.5375 58.3812L54.9843 58.7119C55.3921 58.8071 55.8193 58.6711 56.0971 58.3577C56.6716 57.716 57.174 57.0132 57.5954 56.2622C57.7935 55.9086 57.7906 55.4767 57.5875 55.1258L56.8198 53.8023C56.8736 53.6442 56.9229 53.4828 56.97 53.3182L58.3462 52.7108C58.7624 52.5276 59.0311 52.1157 59.0308 51.6608V49.3231C59.0313 48.8681 58.7626 48.4562 58.3463 48.273ZM55.5334 51.4432C55.2009 51.5894 54.9576 51.8846 54.8779 52.2389C54.7845 52.659 54.6562 53.0706 54.4946 53.4693C54.3577 53.7994 54.3827 54.1744 54.5619 54.4835L55.2611 55.6893C55.121 55.9033 54.9713 56.1128 54.8117 56.318L53.5005 56.0176C53.1405 55.933 52.7618 56.0286 52.4852 56.2742C52.1677 56.5532 51.8273 56.8051 51.4677 57.0273C51.1621 57.2171 50.963 57.5388 50.9297 57.897L50.8065 59.2395L50.0737 59.486L49.2175 58.492C48.9994 58.2388 48.682 58.0932 48.3479 58.0931H46.8979C46.5644 58.0931 46.2472 58.2384 46.0293 58.4908L45.171 59.486L44.4391 59.2395L44.3159 57.897C44.2825 57.5384 44.0829 57.2161 43.7768 57.0263C43.4174 56.8048 43.0773 56.5534 42.7604 56.2744C42.4837 56.0289 42.1052 55.9333 41.7451 56.0177L40.4933 56.3046L40.0148 55.6368L40.6838 54.4836C40.8629 54.1745 40.8878 53.7995 40.7511 53.4695C40.5894 53.0707 40.4612 52.659 40.3678 52.239C40.2879 51.8847 40.0446 51.5895 39.7122 51.4434L38.5098 50.9133V50.0706L39.7122 49.5406C40.0447 49.3944 40.288 49.0992 40.3678 48.7449C40.4612 48.3248 40.5894 47.9132 40.7511 47.5145C40.8879 47.1844 40.8629 46.8094 40.6838 46.5003L39.9845 45.2945C40.1246 45.0805 40.2744 44.871 40.4339 44.6658L41.7451 44.9662C42.1052 45.0501 42.4836 44.9544 42.7604 44.7096C43.078 44.4306 43.4184 44.1787 43.778 43.9565C44.0835 43.7667 44.2826 43.445 44.3159 43.0868L44.4391 41.7443L45.172 41.4978L46.0282 42.4918C46.2462 42.745 46.5636 42.8906 46.8979 42.8907H48.3479C48.6814 42.8907 48.9986 42.7454 49.2165 42.493L50.0748 41.4978L50.8067 41.7443L50.9299 43.0868C50.9633 43.4454 51.1628 43.7677 51.469 43.9575C51.8284 44.179 52.1685 44.4304 52.4854 44.7094C52.7622 44.9544 53.1406 45.0501 53.5007 44.9661L54.8119 44.6657C54.971 44.8708 55.1209 45.0804 55.2613 45.2944L54.562 46.5002C54.3828 46.8093 54.358 47.1843 54.4947 47.5143C54.6564 47.9131 54.7846 48.3248 54.878 48.7448C54.9579 49.0991 55.2012 49.3943 55.5335 49.5405L56.736 50.0705V50.9132L55.5334 51.4432Z" fill="#4D453C"/>
<path d="M47.623 44.7542C44.4542 44.7542 41.8853 47.3231 41.8853 50.4919C41.8853 53.6606 44.4542 56.2296 47.623 56.2296C50.7917 56.2296 53.3607 53.6606 53.3607 50.4919C53.3569 47.3245 50.7903 44.7579 47.623 44.7542ZM47.623 53.9345C45.7216 53.9345 44.1803 52.3932 44.1803 50.4919C44.1803 48.5905 45.7216 47.0492 47.623 47.0492C49.5243 47.0492 51.0656 48.5905 51.0656 50.4919C51.0636 52.3923 49.5234 53.9325 47.623 53.9345Z" fill="#4D453C"/>
<path d="M64.8361 67.7048H62.541V69.9999H64.8361V67.7048Z" fill="#4D453C"/>
<path d="M69.4262 67.7048H67.1312V69.9999H69.4262V67.7048Z" fill="#4D453C"/>
</g>
<defs>
<clipPath id="clip0">
<rect width="70" height="70" fill="white"/>
</clipPath>
</defs>
</svg>
