<svg width="73" height="73" viewBox="0 0 73 73" fill="none" xmlns="http://www.w3.org/2000/svg">
<g clip-path="url(#clip0)">
<path d="M47.9974 44.4284H34.2951V32.0521C34.2951 31.389 33.8531 30.947 33.19 30.947C32.527 30.947 32.0849 31.389 32.0849 32.0521V51.39L31.8639 51.2795L24.6813 38.1298C23.7973 36.0303 21.8082 34.7043 19.5982 34.7043H4.9015C4.23842 34.7043 3.79642 35.1463 3.79642 35.8093V45.9756C1.5864 46.4174 0.0394554 48.4065 0.0394554 50.7271C0.0394554 56.2522 0.0394554 60.5617 0.0394554 66.4184C0.0394554 67.0815 0.481459 67.5235 1.14454 67.5235H3.9071C4.12817 70.507 6.66966 72.9381 9.87422 72.9381C12.9682 72.9381 15.5099 70.507 15.8413 67.5235H19.7088C20.0403 70.6175 22.5819 72.9381 25.676 72.9381C28.77 72.9381 31.3116 70.507 31.6431 67.5235H33.1902C33.8532 67.5235 34.2952 66.971 34.2952 66.4184C34.2952 55.3682 34.2952 57.7993 34.2952 46.6385H47.9975C48.6606 46.6385 49.1026 46.1965 49.1026 45.5334C49.1026 44.8704 48.6603 44.4284 47.9974 44.4284ZM6.00658 36.8037H19.5983V37.0248C20.9243 37.0248 22.1398 37.7983 22.6923 39.1243C22.6923 39.1243 22.6923 39.2348 22.8029 39.2348L28.328 49.4011L28.2174 49.2905C27.6649 49.0695 27.002 49.0695 26.56 49.4011C26.0074 49.7325 25.7865 50.2851 25.7865 50.8376V53.3791H17.0568V47.9645C17.0568 46.7491 16.0623 45.7545 14.8468 45.7545H6.00658V36.8037ZM9.87408 70.7279C7.77459 70.7279 6.11697 69.0705 6.11697 66.9708C6.11697 64.8713 7.77445 63.2137 9.87408 63.2137C11.9737 63.2137 13.6312 64.8712 13.6312 66.9708C13.6312 69.0703 11.8632 70.7279 9.87408 70.7279ZM25.676 70.7279C23.5765 70.7279 21.9189 69.0705 21.9189 66.9708C21.9189 64.8713 23.5763 63.2137 25.676 63.2137C27.7756 63.2137 29.4331 64.8712 29.4331 66.9708C29.4329 69.0703 27.7754 70.7279 25.676 70.7279ZM32.0851 65.3133H31.3116C30.5381 62.7719 28.3281 61.0037 25.5656 61.0037C22.803 61.0037 20.4825 62.8823 19.8195 65.3133H15.5099C14.7364 62.7719 12.5264 61.0037 9.76382 61.0037C7.00126 61.0037 4.68071 62.8823 4.01777 65.3133H2.24947V59.5672H32.0851V65.3133ZM32.1955 57.3571H2.24947V50.8375C2.24947 49.2904 3.46495 48.0749 4.9015 48.0749H14.7361V54.5946C14.7361 55.2577 15.1781 55.6997 15.8412 55.6997H26.7809C27.444 55.6997 27.886 55.2577 27.886 54.5946V51.7215L32.1956 54.042V57.3571H32.1955Z" fill="#4D453C"/>
<path d="M72.5293 24.3171L37.1686 0.227572C36.8371 0.00649928 36.2845 0.00649928 35.9531 0.227572L0.48195 24.3171C0.0399465 24.5382 -0.0705901 25.0906 0.0399465 25.5326C0.150483 25.9746 0.592487 26.3061 1.14503 26.3061H1.8081V32.6047C1.8081 33.2678 2.25011 33.7098 2.91319 33.7098C3.57626 33.7098 4.01827 33.2678 4.01827 32.6047V26.3061H68.9935V70.728H34.5165C33.8535 70.728 33.4114 71.17 33.4114 71.8331C33.4114 72.4961 33.8535 72.9381 34.5165 72.9381H70.0982C70.7613 72.9381 71.2033 72.4961 71.2033 71.8331V26.3061H71.8664C72.3084 26.3061 72.7504 25.9746 72.9714 25.5326C73.0818 25.0906 72.8608 24.5381 72.5293 24.3171ZM4.68106 24.0961L36.5056 2.43773L68.3302 24.0962H4.68106V24.0961Z" fill="#4D453C"/>
<path d="M49.2133 54.3738H37.7211C37.058 54.3738 36.616 54.8158 36.616 55.4789V66.9711C36.616 67.6342 37.058 68.0762 37.7211 68.0762H49.2133C49.8762 68.0762 50.3184 67.6342 50.3184 66.9711V55.4789C50.3184 54.8158 49.7658 54.3738 49.2133 54.3738ZM48.1082 65.8659H38.826V56.5837H48.1082V65.8659Z" fill="#4D453C"/>
<path d="M65.3467 54.3738H53.8544C53.1914 54.3738 52.7494 54.8158 52.7494 55.4789V66.9711C52.7494 67.6342 53.1914 68.0762 53.8544 68.0762H65.3467C66.0098 68.0762 66.4518 67.6342 66.4518 66.9711V55.4789C66.4516 54.8158 66.0096 54.3738 65.3467 54.3738ZM64.2416 65.8659H54.9594V56.5837H64.2416V65.8659Z" fill="#4D453C"/>
<path d="M65.3467 38.2405H53.8544C53.1914 38.2405 52.7494 38.6825 52.7494 39.3456V50.8378C52.7494 51.3903 53.1914 51.9429 53.8544 51.9429H65.3467C66.0098 51.9429 66.4518 51.5009 66.4518 50.8378V39.3456C66.4516 38.6825 66.0096 38.2405 65.3467 38.2405ZM64.2416 49.7327H54.9594V40.4505H64.2416V49.7327Z" fill="#4D453C"/>
<path d="M49.2133 29.2898H37.7211C37.058 29.2898 36.616 29.7318 36.616 30.3949V41.8871C36.616 42.5502 37.058 42.9922 37.7211 42.9922H49.2133C49.8762 42.9922 50.3184 42.5502 50.3184 41.8871V30.3947C50.3184 29.7318 49.8762 29.2898 49.2133 29.2898ZM48.1082 40.6715H38.826V31.3893H48.1082V40.6715Z" fill="#4D453C"/>
<path d="M36.7266 7.96289C32.9695 7.96289 29.8754 11.0569 29.8754 14.814C29.8754 18.5711 32.9695 21.6652 36.7266 21.6652C40.4837 21.6652 43.5777 18.5711 43.5777 14.814C43.5777 11.0571 40.4837 7.96289 36.7266 7.96289ZM36.7266 19.4551C34.1851 19.4551 32.0854 17.3556 32.0854 14.814C32.0854 12.2725 34.1849 10.1729 36.7266 10.1729C39.2682 10.1729 41.3677 12.2724 41.3677 14.814C41.3677 17.3556 39.2682 19.4551 36.7266 19.4551Z" fill="#4D453C"/>
</g>
<defs>
<clipPath id="clip0">
<rect width="73" height="73" fill="white"/>
</clipPath>
</defs>
</svg>
