<svg width="71" height="71" viewBox="0 0 71 71" fill="none" xmlns="http://www.w3.org/2000/svg">
<g clip-path="url(#clip0)">
<path d="M57.2587 13.7427C61.0482 13.7427 64.1297 10.6606 64.1297 6.8717C64.1297 3.08227 61.0482 0.000732422 57.2587 0.000732422C53.4693 0.000732422 50.3878 3.08227 50.3878 6.8717C50.3878 10.6606 53.4693 13.7427 57.2587 13.7427ZM57.2587 2.29106C59.785 2.29106 61.8394 4.34541 61.8394 6.8717C61.8394 9.39743 59.785 11.4523 57.2587 11.4523C54.7324 11.4523 52.6781 9.39743 52.6781 6.8717C52.6781 4.34541 54.7324 2.29106 57.2587 2.29106Z" fill="#4D453C"/>
<path d="M68.7018 20.4794C68.6722 20.2227 68.5564 19.9845 68.3747 19.8039L64.9392 16.3685C64.7251 16.1532 64.4326 16.033 64.1296 16.033H50.3878C50.0842 16.033 49.7923 16.1532 49.5781 16.3685L46.1427 19.8039C45.9604 19.9856 45.8446 20.2238 45.815 20.4794L43.5247 39.9469C43.4867 40.2724 43.589 40.5972 43.8065 40.841C44.0229 41.0865 44.3344 41.2263 44.662 41.2263H50.248L46.959 69.7231C46.9221 70.0474 47.0245 70.3723 47.242 70.6166C47.4595 70.8604 47.7709 71.0002 48.0975 71.0002H54.9684C55.5639 71.0002 56.0593 70.5445 56.1102 69.9501L57.2587 56.1613L58.4072 69.9512C58.4575 70.5445 58.9535 71.0002 59.549 71.0002H66.4199C66.7459 71.0002 67.0573 70.8604 67.2754 70.6177C67.4929 70.3745 67.5947 70.0485 67.5578 69.7242L64.2694 41.2263H69.8553C70.1824 41.2263 70.4945 41.0865 70.7108 40.8427C70.9284 40.5983 71.0301 40.2724 70.9921 39.948L68.7018 20.4794ZM64.1296 38.936V22.9039H61.8393V40.0811C61.8393 40.1242 61.8415 40.1689 61.846 40.2125L65.1349 68.7099H60.6024L58.4005 42.2764C58.3496 41.682 57.8542 41.2263 57.2587 41.2263C56.6632 41.2263 56.1672 41.682 56.1169 42.2764L53.9149 68.7099H49.3824L52.6708 40.2125C52.6758 40.1689 52.6781 40.1242 52.6781 40.0811V22.9039H50.3878V38.936H45.9503L48.0432 21.1414L50.8619 18.3233H63.6554L66.4736 21.1414L68.567 38.936H64.1296Z" fill="#4D453C"/>
<path d="M39.7458 35.836L37.4555 33.5457C37.2414 33.3304 36.9489 33.2102 36.6459 33.2102H25.1944C24.8907 33.2102 24.5989 33.3304 24.3847 33.5457L22.0944 35.836C21.9339 35.9959 21.8255 36.1989 21.7818 36.4209L19.4915 47.8724C19.4239 48.209 19.5111 48.5585 19.7286 48.823C19.9461 49.0886 20.2699 49.2423 20.6138 49.2423H25.1944V50.2544L20.6434 69.5928C20.5634 69.9328 20.6434 70.2912 20.8609 70.5657C21.0784 70.8397 21.4083 71.0002 21.7589 71.0002H27.4847C28.0354 71.0002 28.5085 70.6071 28.6102 70.0653L30.9201 57.746L33.23 70.0653C33.3318 70.6071 33.8048 71.0002 34.3556 71.0002H40.0813C40.4313 71.0002 40.7612 70.8397 40.9788 70.5657C41.1963 70.2912 41.2768 69.9328 41.1963 69.5928L36.6459 50.2544V49.2423H41.2265C41.5698 49.2423 41.8941 49.0886 42.1116 48.823C42.3291 48.5585 42.4163 48.209 42.3487 47.8724L40.0584 36.4209C40.0148 36.1989 39.9057 35.9959 39.7458 35.836ZM36.6459 46.952V38.936H34.3556V50.3875C34.3556 50.4753 34.3656 50.5636 34.3852 50.6497L38.6348 68.7099H35.3061L32.0457 51.3218C31.9439 50.78 31.4709 50.3875 30.9201 50.3875C30.3694 50.3875 29.8963 50.78 29.7945 51.3218L26.5341 68.7099H23.2049L27.4545 50.6497C27.474 50.5636 27.4847 50.4753 27.4847 50.3875V38.936H25.1944V46.952H22.0105L23.9598 37.2098L25.6685 35.5005H36.1717L37.8816 37.2098L39.8291 46.952H36.6459Z" fill="#4D453C"/>
<path d="M16.6684 50.5801L13.2329 48.2898C13.0456 48.1645 12.8231 48.0974 12.5977 48.0974H5.72682C5.50093 48.0974 5.27894 48.1645 5.09106 48.2898L1.65561 50.5801C1.37827 50.764 1.19655 51.0598 1.15405 51.3908L0.00890049 60.552C-0.0324769 60.878 0.0698484 61.2057 0.28736 61.4517C0.504871 61.6983 0.817439 61.8392 1.14622 61.8392H4.04992L3.43988 69.7669C3.41583 70.0851 3.52431 70.3988 3.74126 70.6325C3.95877 70.8673 4.26295 71.0004 4.58167 71.0004H13.7429C14.061 71.0004 14.3658 70.8673 14.5833 70.6336C14.7997 70.3988 14.9098 70.0851 14.8847 69.768L14.2741 61.8392H17.1783C17.5071 61.8392 17.8197 61.6983 18.0372 61.4517C18.2547 61.2057 18.3553 60.878 18.3151 60.552L17.1699 51.3908C17.128 51.0598 16.9446 50.764 16.6684 50.5801ZM14.0991 59.5489L13.7395 54.88L11.4559 55.055L12.506 68.7101H10.3074V61.8392H8.01712V68.7101H5.81853L6.86862 55.0561L4.58503 54.8811L4.22549 59.5489H2.44346L3.36327 52.1943L6.0735 50.3877H12.2516L14.9624 52.1943L15.8805 59.5489H14.0991Z" fill="#4D453C"/>
<path d="M25.1945 25.1943C25.1945 28.3513 27.7627 30.9201 30.9203 30.9201C34.0773 30.9201 36.6461 28.3513 36.6461 25.1943C36.6461 22.0367 34.0773 19.4685 30.9203 19.4685C27.7627 19.4685 25.1945 22.0367 25.1945 25.1943ZM34.3557 25.1943C34.3557 27.0882 32.8141 28.6298 30.9203 28.6298C29.0258 28.6298 27.4848 27.0882 27.4848 25.1943C27.4848 23.2999 29.0258 21.7588 30.9203 21.7588C32.8141 21.7588 34.3557 23.2999 34.3557 25.1943Z" fill="#4D453C"/>
<path d="M4.58179 41.2264C4.58179 43.7521 6.63614 45.807 9.16243 45.807C11.6887 45.807 13.7431 43.7521 13.7431 41.2264C13.7431 38.7001 11.6887 36.6458 9.16243 36.6458C6.63614 36.6458 4.58179 38.7001 4.58179 41.2264ZM11.4528 41.2264C11.4528 42.4895 10.4256 43.5167 9.16243 43.5167C7.89929 43.5167 6.87211 42.4895 6.87211 41.2264C6.87211 39.9633 7.89929 38.9361 9.16243 38.9361C10.4256 38.9361 11.4528 39.9633 11.4528 41.2264Z" fill="#4D453C"/>
<path d="M28.2944 8.35228C27.8465 7.9044 27.1229 7.9044 26.6751 8.35228L0.336609 34.6907L1.95592 36.3101L27.4847 10.7807L30.1105 13.407C30.4382 13.7341 30.9291 13.8314 31.3586 13.6553C31.7857 13.4781 32.0653 13.0598 32.0653 12.5974V1.14588C32.0653 0.513478 31.552 0.000732422 30.9202 0.000732422H19.4687C19.0057 0.000732422 18.588 0.279751 18.4102 0.706946C18.2329 1.13526 18.3313 1.62787 18.659 1.95554L21.2848 4.58133L0.336609 25.5295L1.95592 27.1488L23.7138 5.39099C24.1611 4.94311 24.1611 4.219 23.7138 3.77168L22.2331 2.29103H29.775V9.83292L28.2944 8.35228Z" fill="#4D453C"/>
</g>
<defs>
<clipPath id="clip0">
<rect width="71" height="71" fill="white"/>
</clipPath>
</defs>
</svg>
