<svg width="73" height="73" viewBox="0 0 73 73" fill="none" xmlns="http://www.w3.org/2000/svg">
<g clip-path="url(#clip0)">
<path d="M36.5011 31.6735C36.4086 31.6735 36.3145 31.6652 36.2232 31.6468C36.1318 31.6278 36.0422 31.6011 35.9564 31.5655C35.8695 31.5298 35.7865 31.4858 35.7097 31.434C35.6312 31.3817 35.5587 31.3232 35.493 31.2558C35.4273 31.1906 35.3677 31.1177 35.3165 31.0392C35.2652 30.9623 35.2207 30.8793 35.185 30.7941C35.1494 30.7083 35.121 30.6187 35.1037 30.5273C35.0853 30.4349 35.0753 30.3419 35.0753 30.2477C35.0753 29.8729 35.2279 29.5053 35.493 29.2397C35.8239 28.9094 36.3173 28.7568 36.779 28.8509C36.8704 28.8693 36.96 28.896 37.0458 28.9317C37.1327 28.9673 37.2157 29.0119 37.2925 29.0631C37.3711 29.1144 37.4435 29.1745 37.5092 29.2397C37.5749 29.3054 37.6345 29.3783 37.6857 29.4569C37.7375 29.5337 37.7815 29.6178 37.8172 29.703C37.8528 29.7888 37.8812 29.8785 37.8985 29.9698C37.9169 30.0628 37.9269 30.1553 37.9269 30.2477C37.9269 30.3419 37.9169 30.4349 37.8985 30.5273C37.8812 30.6187 37.8528 30.7083 37.8172 30.7941C37.7815 30.8793 37.7375 30.9623 37.6857 31.0392C37.6345 31.1177 37.5749 31.1906 37.5092 31.2558C37.4435 31.3232 37.3711 31.3817 37.2925 31.434C37.2157 31.4853 37.1327 31.5298 37.0458 31.5655C36.96 31.6011 36.8704 31.6284 36.779 31.6468C36.6877 31.6652 36.5936 31.6735 36.5011 31.6735Z" fill="#4D453C"/>
<path d="M70.4358 25.6756C71.2233 25.6756 71.8616 25.0374 71.8616 24.2498V16.2103C71.8616 15.4228 71.2233 14.7845 70.4358 14.7845H68.7761V7.03297C68.7761 6.58853 68.5689 6.16971 68.2158 5.90015L60.6909 0.150236C60.1802 -0.240183 59.4707 -0.240183 58.9599 0.150236L51.4345 5.90015C51.0814 6.16971 50.8742 6.58853 50.8742 7.03297V14.7845H45.4518V7.03297C45.4518 6.58853 45.2446 6.16971 44.892 5.90015L37.3666 0.150236C36.8559 -0.240183 36.1463 -0.240183 35.6356 0.150236L28.1101 5.90015C27.757 6.16971 27.5499 6.58853 27.5499 7.03297V14.7845H22.128V7.03297C22.128 6.58853 21.9208 6.16971 21.5677 5.90015L14.0422 0.150236C13.5315 -0.240183 12.822 -0.240183 12.3113 0.150236L4.78581 5.90015C4.43326 6.16971 4.22607 6.58853 4.22607 7.03297V14.7845H2.56638C1.77885 14.7845 1.14059 15.4228 1.14059 16.2103V24.2498C1.14059 25.0374 1.77885 25.6756 2.56638 25.6756H4.22607V49.8877H2.56638C1.77885 49.8877 1.14059 50.526 1.14059 51.3135V59.353C1.14059 60.1406 1.77885 60.7788 2.56638 60.7788H4.22607V71.4315C4.22607 72.219 4.86434 72.8573 5.65186 72.8573H20.7022C21.4897 72.8573 22.128 72.219 22.128 71.4315V60.7788H27.5504V71.4315C27.5504 72.219 28.1887 72.8573 28.9762 72.8573H44.0265C44.8141 72.8573 45.4523 72.219 45.4523 71.4315V60.7788H50.8748V71.4315C50.8748 72.219 51.513 72.8573 52.3005 72.8573H67.3503C68.1378 72.8573 68.7761 72.219 68.7761 71.4315V60.7788H70.4358C71.2233 60.7788 71.8616 60.1406 71.8616 59.353V51.3135C71.8616 50.526 71.2233 49.8877 70.4358 49.8877H68.7761V25.6756H70.4358ZM53.7263 7.73751L59.8254 3.07754L65.9245 7.73751V14.7845H53.7263V7.73751ZM30.402 7.73751L36.5011 3.07754L42.6002 7.73751V14.7845H30.4014V7.73751H30.402ZM7.07764 7.73751L13.1768 3.07754L19.2759 7.73751V14.7845H7.07764V7.73751ZM3.99216 17.6361H69.01V22.8241H3.99216V17.6361ZM45.4518 49.8877V25.6756H50.8742V49.8877H45.4518ZM36.5011 35.0039C35.7136 35.0039 35.0753 35.6422 35.0753 36.4297V49.8877H30.402V25.6756H42.6008V49.8877H37.9269V36.4297C37.9269 35.6422 37.2886 35.0039 36.5011 35.0039ZM22.128 49.8877V25.6756H27.5504V49.8877H22.128ZM7.07764 25.6756H11.751V44.1117C11.751 44.8992 12.3892 45.5374 13.1768 45.5374C13.9643 45.5374 14.6025 44.8992 14.6025 44.1117V25.6756H19.2759V49.8877H7.07764V25.6756ZM19.2764 70.0057H7.07764V60.7788H19.2764V70.0057ZM30.402 60.7788H35.0753V70.0057H30.402V60.7788ZM42.6002 70.0057H37.9269V60.7788H42.6002V70.0057ZM65.9245 70.0057H53.7263V60.7788H65.9245V70.0057ZM69.01 57.9273H3.99216V52.7393H69.01V57.9273ZM65.9245 49.8877H61.2512V32.9956C61.2512 32.208 60.6129 31.5698 59.8254 31.5698C59.0379 31.5698 58.3996 32.208 58.3996 32.9956V49.8877H53.7263V25.6756H65.9245V49.8877Z" fill="#4D453C"/>
</g>
<defs>
<clipPath id="clip0">
<rect width="73" height="73" fill="white"/>
</clipPath>
</defs>
</svg>
